<?xml version="1.0" encoding="utf-8"?>
<!-- Generator: Adobe Illustrator 23.0.2, SVG Export Plug-In . SVG Version: 6.00 Build 0)  -->
<svg version="1.1" id="Plan_Travail" xmlns="http://www.w3.org/2000/svg" xmlns:xlink="http://www.w3.org/1999/xlink" x="0px"
	 y="0px" viewBox="0 0 880 660" style="enable-background:new 0 0 880 660;" xml:space="preserve">
<style type="text/css">
	.st0{fill:#E51717;}
	.st1{fill:#FFFFFF;}
	.st2{fill:#141F38;}
</style>
<g id="Layer_1">
	<g>
		<path class="st0" d="M414.5,136.5c-57.7,26.4-83.3,94.9-56.8,152.7s94.9,83.3,152.7,56.8c57.8-26.4,83.3-94.9,56.8-152.7
			C540.7,135.6,472.2,110.1,414.5,136.5z M503.3,330.6c-49.3,22.5-107.7,0.8-130.2-48.5s-0.8-107.7,48.5-130.2s107.7-0.8,130.2,48.5
			S552.5,308.1,503.3,330.6z"/>
		<path class="st0" d="M439.5,191.3c-27.6,12.6-39.8,45.3-27.1,72.9c12.6,27.6,45.3,39.8,72.9,27.1c27.6-12.6,39.8-45.3,27.1-72.9
			C499.8,190.8,467.1,178.6,439.5,191.3z M460.1,258.7l-7.7,3.5l-8.3-18.2c-0.8,1.5-1.7,2.8-2.6,4c-0.9,1.1-2.1,2.4-3.6,3.7
			l-2.9-6.2c2.2-2,3.8-4,4.6-5.8c0.9-1.8,1.3-3.8,1.4-5.9l6.3-2.9L460.1,258.7L460.1,258.7z M487.4,240.8c-0.1,2-0.8,3.8-2,5.4
			s-3.1,3-5.6,4.1c-1.8,0.8-3.4,1.4-4.9,1.6c-1.5,0.3-2.8,0.2-4,0s-2.3-0.7-3.2-1.3c-0.9-0.6-1.9-1.5-2.9-2.6l7.3-4.4
			c0.7,1.2,1.6,1.9,2.6,2.2c1,0.3,1.9,0.3,2.9-0.2c1.1-0.5,1.8-1.3,2.1-2.4c0.3-1.1,0.1-2.5-0.7-4.1c-0.7-1.6-1.7-2.7-2.7-3.1
			c-1-0.5-2.1-0.4-3.3,0.1c-0.8,0.4-1.4,0.8-1.9,1.5c-0.4,0.5-0.7,1.3-1.1,2.2l-6.9,2l-4.3-15.8l18-8.3l2.8,6.1l-12.2,5.6l1.3,4.4
			c0.7-0.8,1.4-1.5,2.1-2.1c0.7-0.6,1.5-1,2.3-1.4c2.7-1.2,5.3-1.4,7.8-0.6c2.4,0.8,4.2,2.5,5.4,5.1
			C487.2,236.8,487.5,238.7,487.4,240.8z"/>
		<path class="st0" d="M463.8,153.2c-3.2,0-6.4,0-9.6,0.4l1.6,16.9c2.6-0.3,5.2-0.3,7.7-0.3L463.8,153.2z"/>
		<path class="st0" d="M490.7,176l6.8-15.6c-2.9-1.3-5.9-2.4-9-3.3l-5,16.2C485.8,174.2,488.3,175,490.7,176z"/>
		<path class="st0" d="M518.6,173.5l-10.8,13.1c2,1.6,3.9,3.4,5.7,5.2l12.2-11.8C523.5,177.7,521.1,175.6,518.6,173.5z"/>
		<path class="st0" d="M429.3,178.3c2.2-1.2,4.6-2.3,7-3.2l-6.3-15.8c-2.9,1.2-5.9,2.5-8.6,3.9L429.3,178.3L429.3,178.3z"/>
		<path class="st0" d="M540.3,200.3l-15.1,7.8l0,0.1c0.6,1.1,1.2,2.4,1.7,3.6c0.5,1.2,1,2.2,1.5,3.4l15.8-6.3
			c-0.6-1.4-1.2-2.8-1.8-4.2C541.8,203.2,541.1,201.8,540.3,200.3z"/>
	</g>
	<rect x="373.3" y="323.5" class="st1" width="183.3" height="20.4"/>
</g>
<g id="Mode_Isolation">
	<path class="st2" d="M588.4,314.4c4.7-18-6.1-36.3-24.1-41c-2.8-0.7-5.6-1.1-8.5-1.1H343.1l-7.9-31.7c-0.8-3.3-3.8-5.7-7.3-5.7H298
		c-4.1,0-7.5,3.3-7.5,7.5c0,4.1,3.3,7.5,7.5,7.5H322l57.1,229c-13.9,8.9-18,27.3-9.2,41.2c8.9,13.9,27.3,18,41.2,9.2
		c6.4-4.1,11-10.4,12.9-17.8h69.2c4.1,16,20.4,25.6,36.4,21.5c16-4.1,25.6-20.4,21.5-36.4c-4.1-16-20.4-25.6-36.4-21.5
		c-10.5,2.7-18.8,10.9-21.5,21.5h-69.2c-3.4-13.2-15.3-22.4-28.9-22.4c-0.6,0-1.2,0.1-1.8,0.1l-7.5-30h142.8
		c15.3,0,28.7-10.4,32.6-25.2l7-27.1H372.8l-3.7-15h203l9.7-37.4H359.8l-3.7-15h229.7L588.4,314.4z"/>
</g>
</svg>
